<?xml version="1.0" encoding="UTF-8"?> <svg xmlns="http://www.w3.org/2000/svg" width="1458" height="704" viewBox="0 0 1458 704" fill="none"><path d="M351.879 220.818V185.63H216.783V220.818H263.91V395.186H304.753V220.818H351.879ZM458.005 276.741C445.123 256.634 424.702 254.749 414.334 254.749C374.119 254.749 346.786 286.795 346.786 327.009C346.786 366.91 374.434 399.584 416.219 399.584C425.959 399.584 444.181 397.385 458.005 377.592V395.186H496.334V259.147H458.005V276.741ZM424.073 288.68C446.066 288.68 461.775 305.331 461.775 327.009C461.775 348.687 446.066 365.653 424.073 365.653C402.081 365.653 386.372 348.687 386.372 327.009C386.372 305.331 402.081 288.68 424.073 288.68ZM515.283 395.186H564.294L603.88 347.745L642.838 395.186H691.85L627.444 321.04L680.539 259.147H632.156L603.88 294.335L576.233 259.147H527.85L580.003 321.04L515.283 395.186ZM735.334 185.63V395.186H776.177V310.986H781.203L837.127 395.186H888.023L822.675 306.902C832.728 305.017 840.269 301.561 845.61 297.791C861.947 286.795 870.115 268.887 870.115 248.465C870.115 232.756 865.403 214.848 849.38 201.339C839.64 193.17 824.874 185.63 795.97 185.63H735.334ZM776.177 218.933H788.429C795.97 218.933 828.016 219.247 828.016 250.35C828.016 281.14 795.656 282.082 787.801 282.082H776.177V218.933ZM1003.71 351.515C997.425 362.511 986.429 369.423 971.977 369.423C957.211 369.423 948.728 362.197 944.644 356.542C940.245 350.573 938.046 341.776 938.046 333.607H1039.84V330.465C1039.84 315.699 1037.95 294.335 1023.5 277.055C1014.08 265.745 998.054 254.749 970.406 254.749C954.069 254.749 935.218 258.205 919.195 273.914C909.456 283.653 898.46 300.304 898.46 327.323C898.46 348.687 904.743 366.281 919.824 380.419C933.333 393.3 949.985 399.584 971.977 399.584C1019.42 399.584 1034.81 367.224 1038.9 357.17L1003.71 351.515ZM939.303 309.101C942.444 290.879 957.211 281.768 971.349 281.768C985.487 281.768 1000.57 290.565 1003.71 309.101H939.303ZM1069.52 166.151V395.186H1107.85V166.151H1069.52ZM1144.38 259.147V395.186H1182.71V259.147H1144.38ZM1140.61 201.653C1140.61 214.22 1150.98 224.588 1163.54 224.588C1176.11 224.588 1186.48 214.22 1186.48 201.653C1186.48 189.086 1176.11 178.718 1163.54 178.718C1150.98 178.718 1140.61 189.086 1140.61 201.653ZM1317.58 351.515C1311.29 362.511 1300.3 369.423 1285.85 369.423C1271.08 369.423 1262.6 362.197 1258.51 356.542C1254.11 350.573 1251.92 341.776 1251.92 333.607H1353.71V330.465C1353.71 315.699 1351.82 294.335 1337.37 277.055C1327.95 265.745 1311.92 254.749 1284.28 254.749C1267.94 254.749 1249.09 258.205 1233.06 273.914C1223.33 283.653 1212.33 300.304 1212.33 327.323C1212.33 348.687 1218.61 366.281 1233.69 380.419C1247.2 393.3 1263.85 399.584 1285.85 399.584C1333.29 399.584 1348.68 367.224 1352.77 357.17L1317.58 351.515ZM1253.17 309.101C1256.31 290.879 1271.08 281.768 1285.22 281.768C1299.36 281.768 1314.44 290.565 1317.58 309.101H1253.17ZM1457.53 291.822V259.147H1422.34V226.787C1422.34 215.477 1423.29 208.251 1426.43 203.224C1430.2 197.569 1435.22 196.312 1440.25 196.312C1446.85 196.312 1452.19 197.883 1457.53 201.967V167.094C1450.93 163.952 1444.02 162.381 1435.54 162.381C1421.4 162.381 1410.09 166.779 1401.92 173.691C1384.96 187.829 1384.01 209.193 1384.01 221.76V259.147H1369.56V291.822H1384.01V395.186H1422.34V291.822H1457.53Z" fill="#2D3B5E"></path><path d="M177.952 189.24V185.656H164.192V189.24H168.992V207H173.152V189.24H177.952ZM178.813 207H183.037L185.213 193.848L190.685 207H192.093L197.821 193.848L199.741 207H203.965L200.381 185.656H197.373L191.453 199.224L185.789 185.656H182.781L178.813 207Z" fill="#2D3B5E"></path><path fill-rule="evenodd" clip-rule="evenodd" d="M216.457 703.551C244.383 651.17 269.956 619.633 314.731 605.826C315.112 605.909 315.951 605.949 317.122 605.949C324.55 605.949 345.391 604.454 348.174 604.066C352.526 603.462 356.831 602.868 361.091 602.281C466.249 587.773 543.46 577.12 602.945 513.633C604.096 512.404 611.593 505.088 614.5 502.461C626.471 491.636 617.728 479.414 605.787 479.414C601.407 479.414 596.604 481.056 592.229 485.01C572.309 503.019 549.852 512.912 525.071 517.921C493.996 524.198 462.055 529.005 420.648 529.005C390.226 529.005 354.707 526.414 310.646 519.905C318.463 515.68 327.945 513.553 338.285 511.234C346.099 509.481 354.402 507.619 362.846 504.657C380.74 498.382 395.707 492.827 408.589 485.466C418.842 479.608 416.044 458.34 389.705 458.34C385.996 458.34 382.071 458.723 377.993 459.56C369.316 461.346 336.036 471.873 307.026 481.05C285.975 487.709 267.172 493.657 261.65 495.037C184.221 514.401 178.885 528.268 156.238 587.121C149.938 603.493 142.298 623.347 131.394 647.769L131.394 647.768C131.166 648.28 130.971 648.805 130.809 649.341C156.565 671.128 185.356 689.439 216.457 703.551Z" fill="black"></path><path d="M586.58 480.468C569.195 496.188 548.52 506.298 523.387 511.378C498.896 516.328 472.477 522.066 437.436 523.164C483.692 511.378 533.47 496.016 551.363 479.46C551.579 479.534 551.785 479.617 552.005 479.69C553.142 478.848 554.294 478.054 555.401 477.122C562.496 471.153 570.605 463.618 579.622 459.78C593.961 451.866 615.428 449.083 617.741 470.344C617.982 472.553 616.968 473.975 615.507 474.681C612.522 473.416 609.209 472.707 605.76 472.707C598.833 472.707 592.199 475.393 586.582 480.47L586.58 480.468Z" fill="url(#paint0_linear_43_7)"></path><path d="M394.545 522.325C405.571 517.145 416.639 510.199 422.714 508.572C422.632 508.072 465.93 489.265 485.441 494.919C486.25 495.153 486.926 495.614 487.513 496.168C523.354 473.053 528.467 471.471 541.808 473.613C542.366 473.648 543.258 474.088 544.258 474.71C523.657 492.209 448.089 516.997 395.084 522.357C394.912 522.344 394.726 522.333 394.545 522.323L394.545 522.325Z" fill="url(#paint1_linear_43_7)"></path><path d="M216.457 703.551C244.383 651.171 269.956 619.633 314.731 605.827C315.112 605.91 315.951 605.95 317.122 605.95C324.55 605.95 345.391 604.455 348.174 604.067C352.526 603.463 356.831 602.869 361.091 602.282C466.248 587.774 543.46 577.121 602.944 513.634C604.096 512.404 611.593 505.089 614.5 502.462C626.471 491.637 617.728 479.415 605.787 479.415C601.407 479.415 596.604 481.057 592.229 485.011C572.309 503.02 549.851 512.913 525.071 517.922C493.996 524.199 462.054 529.006 420.648 529.006C390.225 529.006 354.707 526.415 310.646 519.906C318.463 515.681 327.945 513.554 338.284 511.235C346.099 509.482 354.402 507.619 362.846 504.658C380.74 498.383 395.707 492.828 408.589 485.467C418.842 479.609 416.043 458.341 389.705 458.341C385.996 458.341 382.07 458.724 377.993 459.561C369.316 461.347 336.036 471.874 307.026 481.051C285.975 487.71 267.172 493.658 261.65 495.038C184.22 514.402 178.884 528.269 156.238 587.122C149.938 603.494 142.298 623.348 131.394 647.77L131.394 647.769C131.165 648.281 130.971 648.805 130.809 649.341C156.565 671.129 185.356 689.44 216.457 703.551Z" fill="url(#paint2_linear_43_7)"></path><path d="M410.688 25.9351C493.479 25.9351 569.17 56.3328 627.209 106.576C560.719 40.7925 469.285 0.171875 368.363 0.171875C165.096 0.171875 0.316406 164.952 0.316406 368.218C0.316406 476.482 47.0618 573.828 121.47 641.173C132.057 617.363 139.533 597.936 145.718 581.864C148.185 575.453 150.446 569.576 152.618 564.168C107.005 507.444 79.7092 435.367 79.7092 356.914C79.7092 174.119 227.894 25.9351 410.688 25.9351Z" fill="url(#paint3_linear_43_7)"></path><path d="M804.393 555.451C804.393 551.953 804.743 547.855 805.443 543.157C806.143 538.359 807.142 533.261 808.442 527.864C809.841 522.466 811.44 516.819 813.239 510.921C815.139 505.024 817.238 499.127 819.537 493.229C821.536 487.932 823.835 482.584 826.434 477.187C829.132 471.789 832.031 466.491 835.13 461.294C838.228 456.096 841.427 451.148 844.725 446.45C848.124 441.753 851.522 437.455 854.921 433.556C856.52 433.556 858.219 433.756 860.018 434.156C861.917 434.556 863.717 435.106 865.416 435.805C867.215 436.405 868.814 437.155 870.214 438.054C871.713 438.954 872.913 439.853 873.812 440.753C866.315 448.45 859.569 456.246 853.571 464.142C847.574 471.939 842.826 479.286 839.328 486.182C837.429 489.981 835.679 493.529 834.08 496.828C832.581 500.126 831.181 503.425 829.882 506.723C828.583 509.922 827.383 513.17 826.284 516.469C825.284 519.667 824.334 523.066 823.435 526.664C842.626 502.175 856.87 489.931 866.166 489.931C868.764 489.931 871.563 490.78 874.562 492.48C877.56 494.179 880.209 496.478 882.508 499.377C879.41 502.775 876.211 506.873 872.913 511.671C869.614 516.469 866.565 521.317 863.767 526.214C861.068 531.012 858.819 535.51 857.02 539.708C855.32 543.806 854.471 546.855 854.471 548.854C854.471 549.854 854.621 550.553 854.921 550.953C855.221 551.253 855.87 551.403 856.87 551.403C858.369 551.403 859.569 551.203 860.468 550.803C861.368 550.403 861.917 550.204 862.117 550.204C862.617 551.003 862.917 551.553 863.017 551.853C863.117 552.153 863.167 552.403 863.167 552.602C863.167 553.002 862.567 553.602 861.368 554.402C860.168 555.101 858.719 555.851 857.02 556.651C855.42 557.35 853.821 558 852.222 558.6C850.623 559.199 849.423 559.499 848.623 559.499C847.624 559.499 846.624 559.199 845.625 558.6C844.625 558.1 843.726 557.4 842.926 556.501C842.226 555.601 841.627 554.602 841.127 553.502C840.727 552.403 840.527 551.253 840.527 550.054C840.527 548.554 840.927 546.355 841.727 543.457C842.626 540.458 843.826 537.009 845.325 533.111C846.824 529.113 848.623 524.765 850.723 520.067C852.822 515.369 855.071 510.571 857.469 505.674C857.469 505.274 857.27 505.074 856.87 505.074C856.57 505.074 855.77 505.474 854.471 506.273C853.271 507.073 852.122 507.873 851.022 508.672C847.424 511.371 843.776 514.72 840.077 518.718C836.479 522.616 832.931 526.914 829.432 531.612C826.034 536.31 822.785 541.308 819.687 546.605C816.688 551.803 814.089 557.05 811.89 562.348C811.59 563.048 811.14 563.697 810.541 564.297C809.941 564.897 809.441 565.197 809.041 565.197C808.742 565.197 808.292 564.847 807.692 564.147C807.192 563.448 806.692 562.548 806.193 561.448C805.793 560.449 805.393 559.399 804.993 558.3C804.593 557.2 804.393 556.251 804.393 555.451ZM973.157 495.928C972.758 502.125 971.658 507.473 969.859 511.971C968.06 516.369 965.461 520.267 962.062 523.666C958.764 526.964 954.716 529.963 949.918 532.661C945.12 535.36 939.523 537.959 933.126 540.458C933.126 541.058 933.076 541.707 932.976 542.407C932.976 543.007 932.976 543.656 932.976 544.356C932.976 545.656 933.076 547.005 933.275 548.404C933.475 549.804 933.825 551.103 934.325 552.303C934.825 553.502 935.524 554.502 936.424 555.301C937.324 556.001 938.473 556.351 939.872 556.351C942.571 556.351 945.22 555.751 947.819 554.552C950.418 553.352 952.867 551.903 955.166 550.204C957.564 548.404 959.763 546.505 961.763 544.506C963.862 542.407 965.711 540.508 967.31 538.809C968.31 539.708 969.159 540.558 969.859 541.358C965.361 547.355 960.413 552.353 955.016 556.351C949.718 560.249 944.67 562.748 939.872 563.847C932.976 563.048 927.578 560.549 923.68 556.351C919.882 552.053 917.982 546.905 917.982 540.908C917.982 536.81 918.532 532.661 919.632 528.463C920.831 524.165 922.43 520.067 924.429 516.169C926.529 512.171 928.927 508.422 931.626 504.924C934.425 501.426 937.374 498.377 940.472 495.778C943.671 493.179 946.919 491.13 950.218 489.631C953.616 488.132 956.965 487.382 960.263 487.382C964.861 487.982 969.159 490.83 973.157 495.928ZM962.812 500.876C960.113 501.276 957.315 502.375 954.416 504.174C951.517 505.974 948.768 508.372 946.17 511.371C943.671 514.37 941.372 517.868 939.273 521.866C937.174 525.865 935.524 530.163 934.325 534.761C942.321 530.762 948.968 525.865 954.266 520.067C959.564 514.17 962.412 507.773 962.812 500.876ZM1017.43 548.404C1017.43 544.006 1018.48 537.859 1020.58 529.963C1022.68 521.966 1025.63 512.67 1029.43 502.075C1035.62 485.183 1041.42 471.139 1046.82 459.944C1052.32 448.649 1057.66 439.853 1062.86 433.556C1064.06 433.756 1065.51 434.256 1067.21 435.056C1069.01 435.855 1070.76 436.755 1072.46 437.754C1074.16 438.654 1075.66 439.604 1076.96 440.603C1078.35 441.603 1079.25 442.402 1079.65 443.002C1071.86 452.198 1065.01 462.093 1059.11 472.689C1053.22 483.284 1047.82 495.428 1042.92 509.122C1038.72 520.917 1035.52 531.562 1033.32 541.058C1031.13 550.453 1030.03 558.3 1030.03 564.597C1030.03 566.296 1030.03 567.346 1030.03 567.746C1030.03 568.145 1030.08 568.545 1030.18 568.945C1028.78 568.745 1027.58 568.395 1026.58 567.896C1025.58 567.396 1024.93 566.796 1024.63 566.096C1024.43 565.597 1023.88 564.847 1022.98 563.847C1022.08 562.948 1021.28 562.248 1020.58 561.748C1019.68 561.149 1018.93 559.599 1018.33 557.1C1017.73 554.502 1017.43 551.603 1017.43 548.404ZM1079.55 607.628C1078.15 607.228 1077.35 605.728 1077.15 603.13C1076.75 601.83 1076.45 600.281 1076.25 598.482C1076.15 596.683 1076.1 594.633 1076.1 592.334C1076.1 590.235 1076.45 587.337 1077.15 583.638C1077.85 580.04 1078.8 575.942 1080 571.344C1081.3 566.746 1082.85 561.798 1084.65 556.501C1086.45 551.103 1088.45 545.656 1090.65 540.158C1093.35 533.261 1095.7 527.314 1097.69 522.316C1099.69 517.218 1101.34 512.82 1102.64 509.122C1104.04 505.424 1105.14 502.375 1105.94 499.976C1106.84 497.577 1107.54 495.528 1108.04 493.829C1108.44 492.63 1109.04 491.18 1109.84 489.481C1110.64 487.782 1111.54 486.083 1112.54 484.383C1113.64 482.584 1114.74 480.935 1115.84 479.436C1116.94 477.836 1117.94 476.637 1118.84 475.837C1122.33 476.337 1125.63 477.237 1128.73 478.536C1131.83 479.835 1133.73 481.085 1134.43 482.284C1133.03 483.584 1131.43 485.633 1129.63 488.431C1127.83 491.13 1126.08 494.129 1124.38 497.427C1122.68 500.626 1121.13 503.924 1119.73 507.323C1118.34 510.721 1117.29 513.72 1116.59 516.319C1117.59 514.62 1118.89 512.77 1120.48 510.771C1122.08 508.772 1124.53 506.024 1127.83 502.525C1131.53 498.727 1134.98 495.828 1138.18 493.829C1141.48 491.73 1144.32 490.68 1146.72 490.68C1150.52 490.68 1153.62 491.73 1156.02 493.829C1158.52 495.928 1159.77 498.627 1159.77 501.925C1159.77 509.122 1158.57 516.269 1156.17 523.366C1153.77 530.362 1150.32 536.71 1145.82 542.407C1144.12 544.606 1142.12 546.705 1139.83 548.704C1137.53 550.703 1135.13 552.502 1132.63 554.102C1130.13 555.601 1127.68 556.801 1125.28 557.7C1122.88 558.6 1120.73 559.05 1118.84 559.05C1117.04 559.05 1115.44 558.7 1114.04 558C1112.74 557.2 1111.84 556.251 1111.34 555.151C1115.24 552.852 1119.04 549.654 1122.73 545.556C1126.43 541.457 1129.83 536.76 1132.93 531.462C1136.13 526.064 1138.88 520.267 1141.18 514.07C1143.57 507.873 1145.37 501.576 1146.57 495.178C1142.77 497.177 1139.33 499.377 1136.23 501.775C1133.23 504.074 1130.23 507.123 1127.23 510.921C1123.63 515.319 1120.78 518.868 1118.69 521.566C1116.59 524.265 1114.84 526.564 1113.44 528.463C1112.14 530.362 1111.04 532.162 1110.14 533.861C1109.34 535.46 1108.44 537.459 1107.44 539.858C1106.04 543.057 1104.39 547.305 1102.49 552.602C1100.69 557.8 1098.79 563.647 1096.8 570.145C1094.9 576.642 1092.95 583.538 1090.95 590.835C1089.05 598.232 1087.2 605.578 1085.4 612.875C1084.3 612.675 1083.35 611.876 1082.55 610.476C1081.75 609.577 1081.15 608.927 1080.75 608.527C1080.45 608.127 1080.05 607.827 1079.55 607.628ZM1256.33 495.928C1255.93 502.125 1254.83 507.473 1253.03 511.971C1251.23 516.369 1248.63 520.267 1245.24 523.666C1241.94 526.964 1237.89 529.963 1233.09 532.661C1228.29 535.36 1222.7 537.959 1216.3 540.458C1216.3 541.058 1216.25 541.707 1216.15 542.407C1216.15 543.007 1216.15 543.656 1216.15 544.356C1216.15 545.656 1216.25 547.005 1216.45 548.404C1216.65 549.804 1217 551.103 1217.5 552.303C1218 553.502 1218.7 554.502 1219.6 555.301C1220.5 556.001 1221.65 556.351 1223.05 556.351C1225.74 556.351 1228.39 555.751 1230.99 554.552C1233.59 553.352 1236.04 551.903 1238.34 550.204C1240.74 548.404 1242.94 546.505 1244.94 544.506C1247.03 542.407 1248.88 540.508 1250.48 538.809C1251.48 539.708 1252.33 540.558 1253.03 541.358C1248.53 547.355 1243.59 552.353 1238.19 556.351C1232.89 560.249 1227.84 562.748 1223.05 563.847C1216.15 563.048 1210.75 560.549 1206.85 556.351C1203.05 552.053 1201.16 546.905 1201.16 540.908C1201.16 536.81 1201.7 532.661 1202.8 528.463C1204 524.165 1205.6 520.067 1207.6 516.169C1209.7 512.171 1212.1 508.422 1214.8 504.924C1217.6 501.426 1220.55 498.377 1223.64 495.778C1226.84 493.179 1230.09 491.13 1233.39 489.631C1236.79 488.132 1240.14 487.382 1243.44 487.382C1248.03 487.982 1252.33 490.83 1256.33 495.928ZM1245.98 500.876C1243.29 501.276 1240.49 502.375 1237.59 504.174C1234.69 505.974 1231.94 508.372 1229.34 511.371C1226.84 514.37 1224.54 517.868 1222.45 521.866C1220.35 525.865 1218.7 530.163 1217.5 534.761C1225.49 530.762 1232.14 525.865 1237.44 520.067C1242.74 514.17 1245.59 507.773 1245.98 500.876ZM1297.16 555.001C1297.66 552.103 1298.51 548.304 1299.71 543.607C1301 538.809 1302.5 533.761 1304.2 528.463C1305.9 523.066 1307.7 517.668 1309.6 512.271C1311.5 506.873 1313.35 502.025 1315.15 497.727C1316.45 494.629 1317.6 492.23 1318.6 490.531C1319.6 488.731 1320.7 487.232 1321.9 486.033C1323.29 486.232 1324.74 486.582 1326.24 487.082C1327.74 487.582 1329.19 488.182 1330.59 488.881C1331.99 489.581 1333.24 490.331 1334.34 491.13C1335.44 491.83 1336.29 492.53 1336.89 493.229C1334.19 496.428 1331.79 500.076 1329.69 504.174C1327.69 508.272 1325.64 513.52 1323.54 519.917C1328.94 515.119 1333.69 510.521 1337.79 506.123C1341.99 501.725 1345.88 496.828 1349.48 491.43C1350.08 490.93 1351.13 490.68 1352.63 490.68C1354.03 490.68 1355.38 490.93 1356.68 491.43C1357.98 491.83 1358.88 492.43 1359.38 493.229C1357.58 498.027 1356.68 502.775 1356.68 507.473C1356.68 511.871 1357.33 515.169 1358.63 517.368C1358.53 517.968 1357.83 519.118 1356.53 520.817C1355.33 522.516 1353.98 524.115 1352.48 525.615C1349.78 524.215 1347.38 522.316 1345.28 519.917C1343.19 517.418 1341.64 514.72 1340.64 511.821C1335.94 515.119 1331.94 518.368 1328.64 521.566C1325.34 524.665 1322.49 528.163 1320.1 532.062C1317.8 535.86 1315.8 540.258 1314.1 545.256C1312.5 550.254 1310.95 556.201 1309.45 563.098C1308.55 562.998 1307.45 562.648 1306.15 562.048C1304.95 561.548 1303.7 560.899 1302.4 560.099C1301.2 559.299 1300.1 558.45 1299.11 557.55C1298.11 556.651 1297.46 555.801 1297.16 555.001ZM1448.09 498.327C1447.99 500.226 1447.64 502.225 1447.04 504.324C1446.54 506.323 1445.89 508.173 1445.09 509.872C1444.29 511.471 1443.44 512.82 1442.54 513.92C1441.65 515.019 1440.8 515.569 1440 515.569C1438.9 515.469 1438.25 514.72 1438.05 513.32C1438.05 513.02 1438.15 512.571 1438.35 511.971C1438.65 511.271 1438.95 510.521 1439.25 509.722C1439.55 508.922 1439.8 508.123 1440 507.323C1440.3 506.523 1440.45 505.824 1440.45 505.224C1440.45 503.824 1440.1 502.675 1439.4 501.775C1438.8 500.776 1437.95 500.276 1436.85 500.276C1432.85 500.276 1429.8 502.775 1427.7 507.773C1425.6 512.77 1424.55 520.117 1424.55 529.813C1424.55 530.812 1424.6 531.412 1424.7 531.612C1426.8 531.512 1428.65 531.462 1430.25 531.462C1431.95 531.362 1433.6 531.312 1435.2 531.312C1435.3 531.512 1435.35 531.912 1435.35 532.512C1435.35 533.411 1435.15 534.061 1434.75 534.461C1432.45 534.96 1430.6 535.41 1429.2 535.81C1427.9 536.11 1426.9 536.41 1426.2 536.71C1425.5 537.009 1425.05 537.359 1424.85 537.759C1424.75 538.059 1424.7 538.509 1424.7 539.109C1424.7 539.908 1424.7 540.708 1424.7 541.507C1424.8 542.307 1424.85 543.307 1424.85 544.506C1424.85 552.902 1422.55 559.649 1417.96 564.747C1413.46 569.845 1407.16 572.793 1399.06 573.593C1397.67 573.493 1396.22 573.093 1394.72 572.393C1393.22 571.694 1391.77 570.794 1390.37 569.695C1389.07 568.595 1387.92 567.346 1386.92 565.946C1385.92 564.647 1385.22 563.298 1384.82 561.898C1384.82 558.1 1385.62 554.502 1387.22 551.103C1388.82 547.605 1390.97 544.556 1393.67 541.957C1396.47 539.258 1399.71 537.109 1403.41 535.51C1407.21 533.811 1411.31 532.811 1415.71 532.512C1415.71 530.013 1415.46 527.564 1414.96 525.165C1414.46 522.766 1413.91 520.467 1413.31 518.268C1412.81 515.969 1412.31 513.77 1411.81 511.671C1411.31 509.472 1411.06 507.323 1411.06 505.224C1411.06 502.525 1411.61 499.876 1412.71 497.277C1413.81 494.579 1415.26 492.13 1417.06 489.931C1418.86 487.632 1420.95 485.683 1423.35 484.083C1425.75 482.484 1428.25 481.385 1430.85 480.785C1431.95 481.085 1433.4 481.984 1435.2 483.484C1437.1 484.883 1438.95 486.482 1440.75 488.282C1442.54 490.081 1444.14 491.93 1445.54 493.829C1446.94 495.628 1447.79 497.128 1448.09 498.327ZM1398.61 566.696C1401.01 565.697 1403.26 564.247 1405.36 562.348C1407.56 560.449 1409.46 558.3 1411.06 555.901C1412.66 553.502 1413.91 550.953 1414.81 548.254C1415.81 545.556 1416.31 542.907 1416.31 540.308C1414.31 540.608 1412.11 541.557 1409.71 543.157C1407.31 544.656 1405.06 546.505 1402.96 548.704C1400.86 550.803 1399.11 553.002 1397.72 555.301C1396.32 557.6 1395.62 559.599 1395.62 561.299C1395.62 563.498 1396.62 565.297 1398.61 566.696Z" fill="#2D3B5E"></path><defs><linearGradient id="paint0_linear_43_7" x1="212.27" y1="643.232" x2="452.428" y2="567.906" gradientUnits="userSpaceOnUse"><stop stop-color="#79BFE0"></stop><stop offset="1" stop-color="#1A759F"></stop></linearGradient><linearGradient id="paint1_linear_43_7" x1="212.27" y1="643.232" x2="452.428" y2="567.906" gradientUnits="userSpaceOnUse"><stop stop-color="#79BFE0"></stop><stop offset="1" stop-color="#1A759F"></stop></linearGradient><linearGradient id="paint2_linear_43_7" x1="212.27" y1="643.232" x2="452.428" y2="567.906" gradientUnits="userSpaceOnUse"><stop stop-color="#79BFE0"></stop><stop offset="1" stop-color="#1A759F"></stop></linearGradient><linearGradient id="paint3_linear_43_7" x1="0.316971" y1="566.957" x2="344.946" y2="93.7087" gradientUnits="userSpaceOnUse"><stop stop-color="#A6C57C"></stop><stop offset="1" stop-color="#44862F"></stop></linearGradient></defs></svg> 